<svg width="956" height="454" viewBox="0 0 956 454" class="keymap" xmlns="http://www.w3.org/2000/svg" xmlns:xlink="http://www.w3.org/1999/xlink">
<style>/* inherit to force styles through use tags */
svg path {
    fill: inherit;
}

/* font and background color specifications */
svg.keymap {
    font-family: SFMono-Regular,Consolas,Liberation Mono,Menlo,monospace;
    font-size: 14px;
    font-kerning: normal;
    text-rendering: optimizeLegibility;
    fill: #24292e;
}

/* default key styling */
rect.key {
    fill: #f6f8fa;
}

rect.key, rect.combo {
    stroke: #c9cccf;
    stroke-width: 1;
}

/* default key side styling, only used is draw_key_sides is set */
rect.side {
    filter: brightness(90%);
}

/* color accent for combo boxes */
rect.combo, rect.combo-separate {
    fill: #cdf;
}

/* color accent for held keys */
rect.held, rect.combo.held {
    fill: #fdd;
}

/* color accent for ghost (optional) keys */
rect.ghost, rect.combo.ghost {
    stroke-dasharray: 4, 4;
    stroke-width: 2;
}

text {
    text-anchor: middle;
    dominant-baseline: middle;
}

/* styling for layer labels */
text.label {
    font-weight: bold;
    text-anchor: start;
    stroke: white;
    stroke-width: 4;
    paint-order: stroke;
}

/* styling for optional footer */
text.footer {
    text-anchor: end;
    dominant-baseline: auto;
    stroke: white;
    stroke-width: 4;
    paint-order: stroke;
}

/* styling for combo tap, and key non-tap label text */
text.combo, text.hold, text.shifted, text.left, text.right {
    font-size: 11px;
}

text.hold {
    text-anchor: middle;
    dominant-baseline: auto;
}

text.shifted {
    text-anchor: middle;
    dominant-baseline: hanging;
}

text.left {
    text-anchor: start;
}

text.right {
    text-anchor: end;
}

text.layer-activator {
    text-decoration: underline;
}

/* styling for hold/shifted label text in combo box */
text.combo.hold, text.combo.shifted, text.combo.left, text.combo.right {
    font-size: 8px;
}

/* lighter symbol for transparent keys */
text.trans {
    fill: #7b7e81;
}

/* styling for combo dendrons */
path.combo {
    stroke-width: 1;
    stroke: gray;
    fill: none;
}

/* Start Tabler Icons Cleanup */
/* cannot use height/width with glyphs */
.icon-tabler > path {
    fill: inherit;
    stroke: inherit;
    stroke-width: 2;
}
/* hide tabler's default box */
.icon-tabler > path[stroke="none"][fill="none"] {
    visibility: hidden;
}
/* End Tabler Icons Cleanup */

svg.keymap { fill: #d1d6db; }
rect.key { fill: #3f4750; }
rect.key, rect.combo { stroke: #60666c; }
rect.combo, rect.combo-separate { fill: #1f3d7a; }
rect.held, rect.combo.held { fill: #854747; }
text.label, text.footer { stroke: black; }
text.trans { fill: #7e8184; }
path.combo { stroke: #7f7f7f; }
</style>
<g transform="translate(30, 0)" class="layer-Alternar entre modos (camadas base)">
<text x="0" y="28" class="label" id="Alternar-entre-modos-camadas-base">Alternar entre modos (camadas base):</text>
<g transform="translate(0, 56)">
<g transform="translate(28, 63)" class="key keypos-0">
<rect rx="6" ry="6" x="-26" y="-26" width="52" height="52" class="key"/>
</g>
<g transform="translate(84, 63)" class="key keypos-1">
<rect rx="6" ry="6" x="-26" y="-26" width="52" height="52" class="key"/>
</g>
<g transform="translate(140, 35)" class="key keypos-2">
<rect rx="6" ry="6" x="-26" y="-26" width="52" height="52" class="key"/>
</g>
<g transform="translate(196, 28)" class="key keypos-3">
<rect rx="6" ry="6" x="-26" y="-26" width="52" height="52" class="key"/>
</g>
<g transform="translate(252, 35)" class="key keypos-4">
<rect rx="6" ry="6" x="-26" y="-26" width="52" height="52" class="key"/>
</g>
<g transform="translate(308, 42)" class="key keypos-5">
<rect rx="6" ry="6" x="-26" y="-26" width="52" height="52" class="key"/>
</g>
<g transform="translate(588, 42)" class="key keypos-6">
<rect rx="6" ry="6" x="-26" y="-26" width="52" height="52" class="key"/>
</g>
<g transform="translate(644, 35)" class="key keypos-7">
<rect rx="6" ry="6" x="-26" y="-26" width="52" height="52" class="key"/>
</g>
<g transform="translate(700, 28)" class="key keypos-8">
<rect rx="6" ry="6" x="-26" y="-26" width="52" height="52" class="key"/>
</g>
<g transform="translate(756, 35)" class="key keypos-9">
<rect rx="6" ry="6" x="-26" y="-26" width="52" height="52" class="key"/>
</g>
<g transform="translate(812, 63)" class="key keypos-10">
<rect rx="6" ry="6" x="-26" y="-26" width="52" height="52" class="key"/>
</g>
<g transform="translate(868, 63)" class="key keypos-11">
<rect rx="6" ry="6" x="-26" y="-26" width="52" height="52" class="key"/>
</g>
<g transform="translate(28, 119)" class="key keypos-12">
<rect rx="6" ry="6" x="-26" y="-26" width="52" height="52" class="key"/>
</g>
<g transform="translate(84, 119)" class="key keypos-13">
<rect rx="6" ry="6" x="-26" y="-26" width="52" height="52" class="key"/>
</g>
<g transform="translate(140, 91)" class="key keypos-14">
<rect rx="6" ry="6" x="-26" y="-26" width="52" height="52" class="key"/>
</g>
<g transform="translate(196, 84)" class="key keypos-15">
<rect rx="6" ry="6" x="-26" y="-26" width="52" height="52" class="key"/>
</g>
<g transform="translate(252, 91)" class="key keypos-16">
<rect rx="6" ry="6" x="-26" y="-26" width="52" height="52" class="key"/>
</g>
<g transform="translate(308, 98)" class="key keypos-17">
<rect rx="6" ry="6" x="-26" y="-26" width="52" height="52" class="key"/>
</g>
<g transform="translate(588, 98)" class="key keypos-18">
<rect rx="6" ry="6" x="-26" y="-26" width="52" height="52" class="key"/>
</g>
<g transform="translate(644, 91)" class="key keypos-19">
<rect rx="6" ry="6" x="-26" y="-26" width="52" height="52" class="key"/>
</g>
<g transform="translate(700, 84)" class="key keypos-20">
<rect rx="6" ry="6" x="-26" y="-26" width="52" height="52" class="key"/>
</g>
<g transform="translate(756, 91)" class="key keypos-21">
<rect rx="6" ry="6" x="-26" y="-26" width="52" height="52" class="key"/>
</g>
<g transform="translate(812, 119)" class="key keypos-22">
<rect rx="6" ry="6" x="-26" y="-26" width="52" height="52" class="key"/>
</g>
<g transform="translate(868, 119)" class="key keypos-23">
<rect rx="6" ry="6" x="-26" y="-26" width="52" height="52" class="key"/>
</g>
<g transform="translate(28, 175)" class="key keypos-24">
<rect rx="6" ry="6" x="-26" y="-26" width="52" height="52" class="key"/>
</g>
<g transform="translate(84, 175)" class="key keypos-25">
<rect rx="6" ry="6" x="-26" y="-26" width="52" height="52" class="key"/>
</g>
<g transform="translate(140, 147)" class="key keypos-26">
<rect rx="6" ry="6" x="-26" y="-26" width="52" height="52" class="key"/>
</g>
<g transform="translate(196, 140)" class="key keypos-27">
<rect rx="6" ry="6" x="-26" y="-26" width="52" height="52" class="key"/>
</g>
<g transform="translate(252, 147)" class="key keypos-28">
<rect rx="6" ry="6" x="-26" y="-26" width="52" height="52" class="key"/>
</g>
<g transform="translate(308, 154)" class="key keypos-29">
<rect rx="6" ry="6" x="-26" y="-26" width="52" height="52" class="key"/>
</g>
<g transform="translate(588, 154)" class="key keypos-30">
<rect rx="6" ry="6" x="-26" y="-26" width="52" height="52" class="key"/>
</g>
<g transform="translate(644, 147)" class="key keypos-31">
<rect rx="6" ry="6" x="-26" y="-26" width="52" height="52" class="key"/>
</g>
<g transform="translate(700, 140)" class="key keypos-32">
<rect rx="6" ry="6" x="-26" y="-26" width="52" height="52" class="key"/>
</g>
<g transform="translate(756, 147)" class="key keypos-33">
<rect rx="6" ry="6" x="-26" y="-26" width="52" height="52" class="key"/>
</g>
<g transform="translate(812, 175)" class="key keypos-34">
<rect rx="6" ry="6" x="-26" y="-26" width="52" height="52" class="key"/>
</g>
<g transform="translate(868, 175)" class="key keypos-35">
<rect rx="6" ry="6" x="-26" y="-26" width="52" height="52" class="key"/>
</g>
<g transform="translate(28, 231)" class="key keypos-36">
<rect rx="6" ry="6" x="-26" y="-26" width="52" height="52" class="key"/>
</g>
<g transform="translate(84, 231)" class="key keypos-37">
<rect rx="6" ry="6" x="-26" y="-26" width="52" height="52" class="key"/>
</g>
<g transform="translate(140, 203)" class="key held keypos-38">
<rect rx="6" ry="6" x="-26" y="-26" width="52" height="52" class="key held"/>
<text x="0" y="0" class="key held tap">
<tspan x="0" dy="-1.2em" style="font-size: 88%">Modo</tspan><tspan x="0" dy="1.2em" style="font-size: 88%">Basic</tspan><tspan x="0" dy="1.2em" style="font-size: 88%">(clique)</tspan>
</text>
</g>
<g transform="translate(196, 196)" class="key held keypos-39">
<rect rx="6" ry="6" x="-26" y="-26" width="52" height="52" class="key held"/>
<text x="0" y="0" class="key held tap">
<tspan x="0" dy="-1.2em" style="font-size: 88%">Modo</tspan><tspan x="0" dy="1.2em" style="font-size: 88%">Adept</tspan><tspan x="0" dy="1.2em" style="font-size: 88%">(clique)</tspan>
</text>
</g>
<g transform="translate(252, 203)" class="key held keypos-40">
<rect rx="6" ry="6" x="-26" y="-26" width="52" height="52" class="key held"/>
<text x="0" y="0" class="key held tap">
<tspan x="0" dy="-1.2em" style="font-size: 88%">Camada</tspan><tspan x="0" dy="1.2em" style="font-size: 88%">extra</tspan><tspan x="0" dy="1.2em" style="font-size: 88%">(clique)</tspan>
</text>
</g>
<g transform="translate(308, 210)" class="key keypos-41">
<rect rx="6" ry="6" x="-26" y="-26" width="52" height="52" class="key"/>
</g>
<g transform="translate(371, 210)" class="key trans keypos-42">
<rect rx="6" ry="6" x="-26" y="-26" width="52" height="52" class="key trans"/>
<text x="0" y="0" class="key trans tap">▽</text>
</g>
<g transform="translate(525, 210)" class="key held keypos-43">
<rect rx="6" ry="6" x="-26" y="-26" width="52" height="52" class="key held"/>
<text x="0" y="0" class="key held tap">
<tspan x="0" dy="-1.2em" style="font-size: 88%">Primeiro</tspan><tspan x="0" dy="1.2em" style="font-size: 88%">segure</tspan><tspan x="0" dy="1.2em" style="font-size: 88%">esta</tspan>
</text>
</g>
<g transform="translate(588, 210)" class="key keypos-44">
<rect rx="6" ry="6" x="-26" y="-26" width="52" height="52" class="key"/>
</g>
<g transform="translate(644, 203)" class="key keypos-45">
<rect rx="6" ry="6" x="-26" y="-26" width="52" height="52" class="key"/>
</g>
<g transform="translate(700, 196)" class="key keypos-46">
<rect rx="6" ry="6" x="-26" y="-26" width="52" height="52" class="key"/>
</g>
<g transform="translate(756, 203)" class="key keypos-47">
<rect rx="6" ry="6" x="-26" y="-26" width="52" height="52" class="key"/>
</g>
<g transform="translate(812, 231)" class="key keypos-48">
<rect rx="6" ry="6" x="-26" y="-26" width="52" height="52" class="key"/>
</g>
<g transform="translate(868, 231)" class="key keypos-49">
<rect rx="6" ry="6" x="-26" y="-26" width="52" height="52" class="key"/>
</g>
<g transform="translate(140, 259)" class="key trans keypos-50">
<rect rx="6" ry="6" x="-26" y="-26" width="52" height="52" class="key trans"/>
<text x="0" y="0" class="key trans tap">▽</text>
</g>
<g transform="translate(196, 252)" class="key trans keypos-51">
<rect rx="6" ry="6" x="-26" y="-26" width="52" height="52" class="key trans"/>
<text x="0" y="0" class="key trans tap">▽</text>
</g>
<g transform="translate(252, 259)" class="key trans keypos-52">
<rect rx="6" ry="6" x="-26" y="-26" width="52" height="52" class="key trans"/>
<text x="0" y="0" class="key trans tap">▽</text>
</g>
<g transform="translate(316, 274) rotate(22.5)" class="key trans keypos-53">
<rect rx="6" ry="6" x="-26" y="-26" width="52" height="52" class="key trans"/>
<text x="0" y="0" class="key trans tap">▽</text>
</g>
<g transform="translate(378, 291) rotate(30.0)" class="key trans keypos-54">
<rect rx="6" ry="6" x="-26" y="-40" width="52" height="80" class="key trans"/>
<text x="0" y="0" class="key trans tap">▽</text>
</g>
<g transform="translate(518, 291) rotate(-30.0)" class="key trans keypos-55">
<rect rx="6" ry="6" x="-26" y="-40" width="52" height="80" class="key trans"/>
<text x="0" y="0" class="key trans tap">▽</text>
</g>
<g transform="translate(580, 274) rotate(-22.5)" class="key trans keypos-56">
<rect rx="6" ry="6" x="-26" y="-26" width="52" height="52" class="key trans"/>
<text x="0" y="0" class="key trans tap">▽</text>
</g>
<g transform="translate(644, 259)" class="key trans keypos-57">
<rect rx="6" ry="6" x="-26" y="-26" width="52" height="52" class="key trans"/>
<text x="0" y="0" class="key trans tap">▽</text>
</g>
<g transform="translate(700, 252)" class="key trans keypos-58">
<rect rx="6" ry="6" x="-26" y="-26" width="52" height="52" class="key trans"/>
<text x="0" y="0" class="key trans tap">▽</text>
</g>
<g transform="translate(756, 259)" class="key trans keypos-59">
<rect rx="6" ry="6" x="-26" y="-26" width="52" height="52" class="key trans"/>
<text x="0" y="0" class="key trans tap">▽</text>
</g>
</g>
</g>
</svg>
